# xmcd
#
# Track frame offsets: 
#        150
#        19997
#        38349
#        49512
#        62458
#        76184
#        89235
#        103107
#        121960
#        137489
#        156361
#        166911
#        181395
#        194339
#        207390
#        225324
#
# Disc length: 3215 seconds
#
# Revision: 0
# Processed by: cddbd v1.5.2PL0 Copyright (c) Steve Scherf et al.
# Submitted via: ExactAudioCopyFreeDBPlugin 1.0
#
DISCID=cb0c8d10
DTITLE=Kim Ritchie - Ambition
DYEAR=2004
DGENRE=Country
TTITLE0=Crazy
TTITLE1=Grandpa
TTITLE2=Paper Roses
TTITLE3=My Shoes Keep Walking Back To You
TTITLE4=Take Me Home Country Roads
TTITLE5=Your'e My Best Friend
TTITLE6=Let Me Be There
TTITLE7=I Fall To Pieces
TTITLE8=If I Said You Had A Beautil Body (Would You Hold It Against Me
TTITLE8=)
TTITLE9=Young Love
TTITLE10=Walkin' After Midnight
TTITLE11=If You Love Me Let Me Know
TTITLE12=Snowbird
TTITLE13=Tennessee Waltz
TTITLE14=Blue Bayou
TTITLE15=I'm Not Lisa
EXTD=
EXTT0=
EXTT1=
EXTT2=
EXTT3=
EXTT4=
EXTT5=
EXTT6=
EXTT7=
EXTT8=
EXTT9=
EXTT10=
EXTT11=
EXTT12=
EXTT13=
EXTT14=
EXTT15=
PLAYORDER=
